<svg width="30" height="26" viewBox="0 0 30 26" fill="none" xmlns="http://www.w3.org/2000/svg">
<path d="M2.62504 10.0313L15 25.8906L1.43753 16.0469C1.06254 15.7656 0.906269 15.2813 1.0469 14.8438L2.62504 10.0313ZM9.84379 10.0313H20.1563L15 25.8906L9.84379 10.0313ZM6.75004 0.468744L9.84379 10.0313H2.62504L5.7188 0.468744C5.89068 -0.015623 6.57818 -0.015623 6.75004 0.468744ZM27.375 10.0313L28.9531 14.8438C29.0938 15.2813 28.9375 15.7656 28.5625 16.0469L15 25.8906L27.375 10.0313ZM27.375 10.0313H20.1563L23.25 0.468771C23.4219 -0.0155957 24.1094 -0.0155957 24.2813 0.468771L27.375 10.0313Z" fill="#87C232"/>
</svg>
